<svg width="187" height="287" viewBox="0 0 187 287" xmlns="http://www.w3.org/2000/svg" xmlns:xlink="http://www.w3.org/1999/xlink">
    <defs>
        <filter id="plsswednwa">
            <feColorMatrix in="SourceGraphic" values="0 0 0 0 1.000000 0 0 0 0 1.000000 0 0 0 0 1.000000 0 0 0 1.000000 0"/>
        </filter>
        <path id="qu3jqldtcb" d="M0 0h187v287H0z"/>
    </defs>
    <g transform="translate(-1253 -1)" filter="url(#plsswednwa)" fill="none" fill-rule="evenodd" opacity=".5">
        <g transform="translate(1253 1)">
            <mask id="t1pbw0xbwc" fill="#fff">
                <use xlink:href="#qu3jqldtcb"/>
            </mask>
            <path d="M185.708 108.21c-2.237 25.037-14.946 43.656-32.797 53.69-10.953 6.164-30.43 12.727-46.145 9.426-2.021 2.286-3.08 6.605-2.979 10.534.246 7.38 5.344 10.556 4.87 18.248a8.777 8.777 0 0 0-1.13-1.095c4.213 5.92 12.448 12.182 14.063 17.685.38 1.294.008 3.746-.448 6.315l-.154.86c-.44 2.439-.89 4.88-.786 6.445.155 2.244.894 4.203 1.53 6.058l.15.443c1.131 3.386 1.726 6.47-2.502 10.391-7.578-.532-13.897-1.802-19.516-7.368-1.284 2.063-3.655 2.524-4.745 5.335-7.189-1.884-17.912-7.357-22.411-13.172 4.213-4.573 6.4-10.336 2.433-16.014 1.302-2.32 4.335-5.996 7.635-9.803l.568-.654c5.512-6.328 11.525-12.826 11.375-13.919 1.08-2.625 1.817-2.48.782-6.303-.092.104.83-1.024.851-.324.442-1.599.582-3.233.692-4.867l.08-1.225c.194-2.855.5-5.683 2.37-8.291l3.855-.176a30.607 30.607 0 0 1-3.641-1.418l3.146-9.549c13.692 7.07 35.91 3.619 45.627-3.026 15.959-10.959 21.239-37.537 37.227-48.226zm-66 71 3.395 1.11c11.517 10.336 27.694 12.848 40.24 21.827 12.868 9.144 24.227 24.814 23.313 41.063-4.972-3.37-10.31-6.064-15.702-8.698l-1.906-.929h0l-1.906-.929c-7.309-3.572-14.585-7.302-21.059-12.72-11.411-9.44-21.954-26.975-26.375-40.724zm-93-4.689c20.762 14 45.579-24.712 68-8.076h0l-3.172 6.174c-11.257 4.192-17.046 11.323-29.544 13.332-12.282 2.014-30.498 3.539-35.284-11.43zM181.58 89.838l2.127 1.412c-12.33-1.671-24.074 1.014-35.546 3.04-1.236 2.728-2.404 5.504-3.55 8.293l-.636 1.556h0l-.634 1.558-.949 2.336-.634 1.556c-7.2 17.614-15.014 34.628-34.85 42.51l-2.201 1.111c14.235-18.103 14.41-41.927 29.655-57.12-11.589.693-23.028-1.44-34.655-11.801 7.796-.169 15.687-1.348 23.557-2.528l2.529-.378h0l1.685-.248c18.804-2.747 37.367-4.462 54.102 8.703zm26.142 2.372c9.342 7.63 18.356 9.145 26.483 18.921 8.022 9.619 18.556 24.566 8.17 36.08 1.448-24.84-44.323-27.164-41.547-54.696h0zm-115.015-31c-9.047 28.603 7.2 58.234-21 81 1.173-7.64 1.393-15.558 1.609-23.462l.046-1.693h0l.049-1.693c.567-19.171 1.905-38.02 17.593-52.387l1.703-1.765zm2.68-85.278c-2.425 5.761-2.497 11.935 3.32 15.895-.476 2.921-2.424 8.166-4.497 13.448l-.48 1.218-.16.405-.32.809c-2.667 6.716-5.197 12.914-4.753 13.773-.117 2.814-.907 2.96 1.442 6.167.086-.104-.44 1.25-.716.618.155 1.67.607 3.26 1.085 4.831l.359 1.177c.83 2.742 1.532 5.475.653 8.532l-3.404 1.417c1.143-.031 2.283 0 3.415.096l.376 10.182c-15.376-1.924-35.104 9.111-41.985 18.809-5.283 7.564-7.09 17.629-8.729 27.802l-.28 1.744-.14.872-.282 1.743c-1.612 9.865-3.512 19.51-8.735 26.74-6.672-24.593-1.216-46.75 12.077-62.51 8.222-9.777 24.42-22.903 40.47-25.155 1.065-2.85.563-7.212-.877-10.802-1.27-3.001-3.157-4.914-5.063-6.75l-.602-.579c-2.205-2.12-4.354-4.279-5.523-8.045.538.268 1.001.47 1.487.655-2.337-1.572-5.274-2.983-8.206-4.387l-.976-.468c-4.385-2.106-8.608-4.232-10.628-6.894C52.071 5.117 51.661-2.85 50.25-5.933c-2.699-5.969-9.411-7.979-5.172-16.114 7.457-2.155 14.023-3.167 21.42.115.505-2.419 2.624-3.699 2.666-6.669 7.574-.736 19.85.66 26.224 4.533zm27.428 40.34c10.793-6.083 27.354-13.728 36.892-1.724-14.948-3.484-24.54 12.018-36.006 22.558 15.811-2.527 30.785.387 43.365 7.586 10.965 6.29 26.554 19.555 31.886 34.628 3.025.811 7.594-.445 11.142-2.659 6.345-3.981 6.532-10.048 13.463-13.527-.15.484-.295.998-.377 1.557 1.092-2.417 1.955-5.33 2.8-8.26l.298-1.034c1.39-4.823 2.799-9.543 5.177-12.026 1.894-1.985 9.755-3.794 12.585-5.674 1.585-1.075 2.781-2.406 3.893-3.692l.316-.366h0l.312-.362c2.493-2.877 4.844-5.223 10.679-3.456 3.44 6.882 5.538 13.043 3.555 20.848 2.476.041 4.108 1.891 7.096 1.418 2.057 7.246 2.76 19.419 0 26.33-6.136-1.388-12.335-.367-15.24 5.963-2.901.041-8.196-.868-13.625-1.91l-1.287-.25h0l-.858-.167c-7.567-1.484-14.817-3.018-15.62-2.386-2.733.376-3.063-.316-5.657 2.27l-.222.222c-.103-.04-1.273-.268-.715-.593-1.635.434-3.145 1.144-4.635 1.881l-.744.37c-2.725 1.353-5.441 2.652-8.794 2.349l-2.708-4.16a30.76 30.76 0 0 1 .92 5.1l-10.102 2.104c-.78-15.408-15.223-32.876-26.116-37.929-8.207-3.777-18.187-3.91-28.29-3.774l-1.785.026h0l-1.784.027c-8.303.125-16.559.162-23.854-1.76-3.1.635-6.43.568-10.068-.454h0l.897-6.69c3.561-3.036 6.2-6.188 8.76-9.268l.765-.922c3.7-4.443 7.407-8.698 13.686-12.193zm98.738-42.062c-1.176 15.518 2.972 30.784.15 46.727-2.598 14.585-12.806 32.544-22.812 43.273l-.714-3.483c3.269-15.13-2.77-30.284-1.207-45.655 1.505-15.668 9.628-33.41 24.583-40.862zm-236.846 31c15.117 3.778 30.888 2.406 46.15 7.817 13.956 4.986 29.97 17.797 38.85 29.08l-3.536.103c-14.403-5.682-30.406-2.55-45.303-6.649-15.2-4.142-31.33-14.937-36.161-30.35z" stroke="#FEFEFE" stroke-width="3" stroke-linecap="round" stroke-linejoin="round" mask="url(#t1pbw0xbwc)"/>
        </g>
    </g>
</svg>
