<svg width="119" height="26" viewBox="0 0 119 26" xmlns="http://www.w3.org/2000/svg">
    <defs>
        <filter id="iexclzu5ma">
            <feColorMatrix in="SourceGraphic" values="0 0 0 0 0.188235 0 0 0 0 0.403922 0 0 0 0 0.403922 0 0 0 1.000000 0"/>
        </filter>
    </defs>
    <g transform="translate(-106 .101)" filter="url(#iexclzu5ma)" fill="none" fill-rule="evenodd">
        <path d="m106.5 8.979.039-.194.017-.042.079-.127c1.59-1.863 4.045-2.183 7.196-1.494l.414.095.405.1.407.11.418.122.44.138.727.24.836.293 2.147.776.853.296.446.146.477.148a.64.64 0 0 1 .189.09l.07.06.334.085.112-.03c.24-.07.405-.001.527.127l.053.064.14.031c1.21.266 2.405.47 3.659.619-.88-.184-1.65-.42-2.426-.74-1.9-.787-3.353-2.118-4.102-3.85-.336-.777-.558-1.607-.547-2.316.015-1.068.573-1.809 1.696-1.928 1.793-.192 3.42.765 5.307 2.613l.36.36.24.249.359.385.388.436.625.723 1.13 1.325.459.523.273.302.256.274.37.379.378.366c.179.167.238.424.206.648a.572.572 0 0 1-.197.379l-.081.057-.096.046-.019.035-.03.046.468.01.97.014 1.012.003.524-.003 1.087-.012 1.14-.023 1.2-.03 1.23-.04.596-.02-1.475-.12c-.355-.03-.51-.288-.562-.581l-.01-.08-.005-.08.001-.071-.355-.149-.346-.16-.336-.17c-1.573-.844-2.817-2.26-2.924-3.713-.124-1.696 1.495-2.344 3.493-2.235l.2.013.336.033c1.784.213 3.51.99 5.534 2.313l.533.357.347.241.349.25.357.264.374.284.397.308.655.52 1.871 1.523c.167.134.23.324.25.533l.004.052v.063l.042.014c.183.08.284.245.335.435l-.022-.063 6.972-.133 2.853-.04 1.969-.016 1.3-.004-.532-.112-.273-.06c-4.755-1.063-7.48-2.722-8.218-5.957a.845.845 0 0 1-.024-.174c-.008-.26.055-.473.407-.557 2.311-.544 4.647.244 7.557 2.051a31.715 31.715 0 0 1 2.603 1.808l.67.526c.567.454 1.157.948 1.788 1.495l.778.683.39.348.926.024 1.706.06 2.36.107 5.98.297 1.799.073.926.03.323-.056c.381-.061.777-.112 1.197-.155l.429-.041.448-.036c.264-.02.416.07.512.226l.038.07.017.045.426.002c.377 0 .749-.002 1.116-.006l.548-.008 1.11-.029.14-.005.043-.032c.128-.09.196-.1.312-.062l.076.03.078.032.004.005.631-.036.601-.042.626-.052.665-.06 1.102-.114 4.021-.452.957-.097.554-.05a88.16 88.16 0 0 1 3.506-.24c-2.485-.396-4.723-1.228-6.681-2.53a21.49 21.49 0 0 1-.462-.315l-.448-.325a22.393 22.393 0 0 1-1.779-1.48l-.469-.44c-.08-.075-.16-.153-.242-.232l-.502-.495-.532-.538-.567-.586-1.175-1.24a.956.956 0 0 1-.183-.362l-.022-.085-.01-.059-.212-.224.224-.02.007-.029a.492.492 0 0 1 .262-.312l.089-.033.102-.02c3.403-.36 6.704.42 9.642 2.247 1.643 1.021 3.046 2.174 4.731 3.857l.573.582.296.306.612.647.318.34.662.72c.12.133.166.3.183.487l1.53-.028 1.793-.021 1.1-.005 3.817.006 1.942-.003.738-.006 1.072-.016c3.265-.062 5.575-.566 7.45-1.857.213-.143.407-.11.597.01l.103.094.041.054c.046.064.083.14.112.219.106.295.115.564-.188.772-2.272 1.563-4.875 2.047-8.933 2.037l-2.156-.017-1.748-.002c-.589 0-1.184.003-1.787.007l-1.835.018-1.887.027-1.265.024c.034.11.044.23.018.345-.618 2.723-3.08 5.013-6.53 6.775-3.552 1.814-6.954 2.41-9.55 1.038-.261-.141-.376-.43-.359-.688.163-2.227 1.9-3.823 4.829-5.272a24.451 24.451 0 0 1 4.998-1.844l-1.844.164-4.296.402-1.514.13-1.344.104-1.247.08-.63.035-.12.215c-1.193 2.056-2.94 3.251-6.122 4.576l-.36.148-.37.15-1.29.507-.718.289c-1.943.797-3.136 1.43-4.184 2.295l-.184.155-3.107 2.812.52-.808-.497.472 2.026-3.364c.229-.407.39-.808.552-1.374l.11-.404.113-.464.16-.696.136-.548c.425-1.646.852-2.475 1.816-3.301.236-.203.488-.39.756-.561l.272-.167.067-.037-5.445-.272-2.521-.11-1.536-.052-1.39-.032-.53-.007c.136.09.229.25.281.422.093.303.048.635-.309.796-.692.312-1.188.72-1.938 1.55l-.804.919c-.863.978-1.936 1.847-3.222 2.65-2.164 1.352-4.67 2.288-7.801 3.03-.263.06-.445-.007-.566-.146l-.05-.065-.065.016.023-.092-.031-.073-.028-.083-.022-.089-.016-.092-.005-.05v-.08l.014-.105c.853-3.81 3.583-7.005 7.046-8.436l-10.397.115-.049.053-.245.24-.24.242-.244.259-.403.445-.483.55-.815.945-.391.445-.354.394-.326.35c-.105.11-.206.214-.306.314l-.294.287-.29.268-.297.256-.31.253c-1.066.847-2.126 1.386-3.254 1.565-1.308.21-2.636-.11-3.937-.85-.296-.17-.432-.61-.314-.914.598-1.493 1.367-2.73 2.378-3.725a9.85 9.85 0 0 1 1.147-.964l.34-.235-2.465.065-1.74.032-1.194.012h-1.109l-1.036-.013-.656-.015-.633-.022-.612-.028-.555-.032.024.086a.611.611 0 0 1-.031.378l-.05.089-.07.085-.088.094-.167.192a5.637 5.637 0 0 0-.164.208l-.172.237-.19.281-.22.338-.388.61-.115.177-.211.31-.194.266a6.524 6.524 0 0 1-.095.12l-.192.228-.205.22c-.636.655-1.378 1.126-2.545 1.68l-.57.264c-3.163 1.423-5.56 1.918-7.571.986-.316-.145-.47-.538-.386-.847.556-2.046 1.664-3.756 3.293-4.98.97-.728 2.077-1.296 3.384-1.766l.49-.167-.215-.05-.254.06c-1.012.225-2.087.32-3.288.308l-.457-.009-.47-.019-.579-.034-.392-.03-.635-.057-1.01-.107-1.247-.142-.84-.088-1.182-.104-1.861-.144c-1.477-.114-2.441-.428-3.165-1.244a.922.922 0 0 1-.19-.402l-.024-.131v-.056zm82.52 9.615-.02.064.173.055.18.05.233.052.418.078c.895.17 1.88.133 2.968-.085 2.211-.44 4.426-1.502 6.39-3.013 1.906-1.467 3.16-2.986 3.601-4.64L203 11c-.793.023-1.556.057-2.379.11a.888.888 0 0 1 .15.327c.09.367-.009.787-.485.842-1.962.226-4.047.87-6.201 1.86-2.45 1.123-3.996 2.24-4.768 3.744-.082.161-.188.4-.26.6l-.037.11zM189.31 2l-.31.003.492.52.546.568.507.514c.897.895 1.634 1.549 2.438 2.162l.412.306.472.33c2.168 1.465 4.715 2.298 7.597 2.549.36.032.485.264.544.571a.98.98 0 0 1 .018.235l-.006.063-.033.124-.023.055L203 9.969l-.633-.692-.6-.641a56.615 56.615 0 0 0-.572-.596l-.548-.553c-1.433-1.42-2.662-2.423-4.072-3.314-2.12-1.339-4.438-2.074-6.84-2.164L189.31 2zm-19.295 1.698a.651.651 0 0 1 .009-.313.536.536 0 0 1 .667-.364l.678.181.727.182 3.122.735.574.14.768.194.462.123.64.18.404.122.593.192.4.136c2.82.986 5.11 2.52 6.79 4.639.112.142.154.34.15.52-.003.16-.032.287-.169.417-.303.29-.62.153-.804-.08-1.6-2.018-3.824-3.452-6.644-4.382l-.564-.18-.375-.114-.384-.11-.404-.111-.902-.232-.796-.194-2.632-.617.33.375.416.465.377.41c.363.384.686.702 1.022 1.004l.17.15.159.137.435.354c1.594 1.239 3.532 1.901 5.794 2.038.365.021.512.272.568.568.07.37-.036.767-.575.735-2.467-.15-4.62-.891-6.399-2.273l-.18-.143-.35-.289-.341-.3a16.722 16.722 0 0 1-.688-.662l-.363-.378-.386-.418-.418-.467-.457-.523-1.154-1.332a48.75 48.75 0 0 0-.094-.106.855.855 0 0 1-.176-.41zM174.5 18.5l.36-.295-.13.287.119-.07c.48-.278 1.005-.542 1.629-.823l.559-.246.614-.257.675-.274 1.374-.549.674-.28c.108-.045.214-.09.318-.136l.601-.266c2.021-.923 3.208-1.742 4.101-2.926l.106-.144-.66.017c-.262.006-.523.01-.782.012l-.772.002-1.168-.011-.599-.011-1.182-.03-.301.057c-1.495.305-2.692.801-3.593 1.55l-.203.177c-.661.609-.994 1.238-1.327 2.475l-.125.493-.288 1.248zm8.225-7.17c-.424.033-.485.139-.457.333l.47.008-.013-.342zM153 20l.497-.145c1.832-.548 3.412-1.2 4.813-2.017l.378-.227.37-.235.43-.293a13.647 13.647 0 0 0 2.83-2.652c1.014-1.264 1.635-1.887 2.526-2.352l.156-.077-.591-.002-.657.004-.825.012c-.002.311-.165.6-.566.594-4.01-.062-7.703 2.883-9.205 6.94l-.097.272L153 20zm.5-15.46c.622 1.552 2.14 2.681 4.39 3.528l.311.113.426.146.386.124.387.116.398.112.417.109.448.109.487.112.826.179 1.524.312-.134-.115a35.576 35.576 0 0 0-2.903-2.246l-.406-.273-.326-.214c-2.28-1.466-4.125-2.22-5.828-2.147l-.242.016-.161.018zm-19 1.825c-.018.516.553 1.25 1.348 1.853.542.41 1.215.739 2.037 1.014 1.338.448 2.817.695 4.727.84a.63.63 0 0 1 .278.082l.068.049.03.032 3.512.265-1.308-1.002-.702-.524-.423-.306-.399-.28-.384-.262-.378-.248-.56-.352c-1.718-1.053-3.17-1.687-4.645-1.932-.645-.107-1.467-.132-2.097-.025-.732.125-1.088.383-1.104.796zm2.035 11.535-.035.085.12.06c.865.415 1.715.555 2.537.384.917-.192 1.808-.734 2.728-1.592l.137-.13.264-.26.259-.27.13-.14.265-.3.28-.333.305-.375.52-.662 1.071-1.385.271-.343.113-.139-2.553.05-1.176.027-.083.05c-1.298.632-2.336 1.331-3.17 2.182l-.223.236c-.711.785-1.29 1.737-1.76 2.855zM121.71 3.016c-.624.067-.807.448-.664 1.277.125.733.54 1.682.938 2.279 1.301 1.951 3.262 2.81 6.804 3.285l.73.09L130 10l-.438-.507-.338-.404-1.635-1.996-.38-.452-.34-.39-.33-.364-.113-.122c-1.812-1.931-3.265-2.904-4.716-2.749zm-5.099 15.056-.111.282.027.008c1.444.362 3.248-.003 5.513-.913l.545-.226.551-.24c1.127-.509 1.823-.944 2.37-1.53l.083-.09.156-.181.156-.198.168-.229.302-.437.375-.556.22-.313.1-.138.19-.246c.03-.038.061-.076.092-.112l.093-.107.059-.066-.03-.003c-.522-.046-1.037-.1-1.556-.165l-.848-.112a.514.514 0 0 1-.138.108l-.088.039-.102.03c-2.338.524-4.05 1.154-5.442 2.11a7.433 7.433 0 0 0-2.56 3.004l-.125.281zm-7.996-8.747-.115.088.01.005c.466.242 1.061.347 2.034.407l.723.04.522.034.272.022.58.051 3.398.358.466.045.62.051.38.026.562.029c.301.012.593.019.876.019l.419-.005.138-.004-1.99-.696-.798-.27-.686-.22a27.046 27.046 0 0 0-.21-.063l-.405-.118-.392-.105-.392-.098-.2-.047c-2.434-.562-4.322-.521-5.643.335l-.17.116z" stroke="#699" stroke-width=".5" fill="#699" fill-rule="nonzero"/>
    </g>
</svg>
